<svg id="Layer_2" data-name="Layer 2" xmlns="http://www.w3.org/2000/svg" viewBox="0 0 612 612"><defs><style>.cls-1{fill:none;}.cls-2{fill:#b13e4b;}.cls-3{fill:#97a0aa;}.cls-4{fill:#231f20;}</style></defs>
<path class="cls-1" d="M304.19,266.61a256.91,256.91,0,0,0-13.94-52.77,351.73,351.73,0,0,0-57.7,7.79,213.16,213.16,0,0,1,14,51A300.08,300.08,0,0,1,304.19,266.61Z"/>
<path class="cls-1" d="M347.12,314.52a301.73,301.73,0,0,1-6.89,53.18,213.5,213.5,0,0,1,51.66,14.91,353.59,353.59,0,0,0,8.18-59.25,256,256,0,0,0-52.8-13.72C347.23,311.26,347.19,312.89,347.12,314.52Z"/>
<path class="cls-1" d="M345.56,269.09a301.44,301.44,0,0,1,54.29,12.16A352,352,0,0,0,391.17,223a352.63,352.63,0,0,0-56.91-8.74A301.21,301.21,0,0,1,345.56,269.09Z"/>
<path class="cls-1" d="M307.08,306.88a253.42,253.42,0,0,0-58.61,7.37,211,211,0,0,1-13.32,63.68,211.28,211.28,0,0,1,64.78-12.58,255.74,255.74,0,0,0,7-51.8Q307.05,310.19,307.08,306.88Z"/>
<path class="cls-2" d="M290.25,213.84a276.12,276.12,0,0,0-20.07-41.65,392.38,392.38,0,0,0-58.63,10.13,229,229,0,0,1,21,39.31A351.73,351.73,0,0,1,290.25,213.84Z"/>
<path class="cls-2" d="M391.17,223a360.51,360.51,0,0,0-14.43-46.65,396.76,396.76,0,0,0-59.39-5.87h-.12a316.45,316.45,0,0,1,17,43.78A352.63,352.63,0,0,1,391.17,223Z"/>
<path class="cls-2" d="M426.46,188.47a394.82,394.82,0,0,1,11.6,49.2c82.28,32,131.9,85.66,142.67,97.68L610,305.11C596.64,290.34,532.55,221.68,426.46,188.47Z"/>
<path class="cls-2" d="M6.9,303.51l29.52,31.84C46.86,323.7,101.75,264.45,192.31,233a191.35,191.35,0,0,0-22.24-37.81C75.83,230.14,18.37,291,6.9,303.51Z"/>
<path class="cls-2" d="M304.19,266.61a300.08,300.08,0,0,0-57.6,6,212.74,212.74,0,0,1,2.17,31.09c0,3.56-.11,7.06-.29,10.52a253.42,253.42,0,0,1,58.61-7.37A255.63,255.63,0,0,0,304.19,266.61Z"/>
<path class="cls-2" d="M347.27,309.64a256,256,0,0,1,52.8,13.72q.27-4.82.41-9.72c.29-11.09,0-21.88-.63-32.39a301.44,301.44,0,0,0-54.29-12.16A302.94,302.94,0,0,1,347.27,309.64Z"/>
<path class="cls-2" d="M443.38,315.92c-.29,9.31-.91,18.4-1.8,27.3,41.08,24.1,65.51,52.53,71.31,59.48l27.46-30.13c-8.2-9.27-41.54-45.82-96.8-73.43Q443.64,307.44,443.38,315.92Z"/>
<path class="cls-2" d="M206.12,283.86c-77,27.14-123.87,77.73-132.51,87.37l31.47,32.14c6.07-7.31,41.16-48.24,100.34-74.39a174.9,174.9,0,0,0,1.83-25.56A174.1,174.1,0,0,0,206.12,283.86Z"/>
<path class="cls-2" d="M445.26,470.33l27.45-29.46c-3.8-4.41-18.19-20.6-42-36.89a399.14,399.14,0,0,1-13,40.61A178,178,0,0,1,445.26,470.33Z"/>
<path class="cls-2" d="M164.13,419.64a203,203,0,0,0-21.55,21.23l.37.37A173.18,173.18,0,0,0,164.13,419.64Z"/>
<path class="cls-2" d="M235.15,377.93a232.85,232.85,0,0,1-46.67,75.17c18.74-16.46,51.72-39,97-44.91a258.72,258.72,0,0,0,14.44-42.84A211.28,211.28,0,0,0,235.15,377.93Z"/>
<path class="cls-2" d="M151.36,449.85l20,20.48c.56-.67,1.42-1.66,2.54-2.91-.85.75-1.55,1.36-2.08,1.8Z"/>
<path class="cls-2" d="M340.23,367.7a304.62,304.62,0,0,1-11.83,40.17,174.79,174.79,0,0,1,52.05,14.47,353.68,353.68,0,0,0,11.44-39.73A213.5,213.5,0,0,0,340.23,367.7Z"/>
<path class="cls-3" d="M312.73,4.47,280.66,33.74c11,10,64.34,60.18,96.08,142.63a394.6,394.6,0,0,1,49.72,12.1C394.11,82.14,326,16.82,312.73,4.47Z"/>
<path class="cls-3" d="M399.85,281.25a312.29,312.29,0,0,1,43.7,17.89,391.92,391.92,0,0,0-5.49-61.47A356.73,356.73,0,0,0,391.17,223,352,352,0,0,1,399.85,281.25Z"/>
<path class="cls-3" d="M391.89,382.61A230.74,230.74,0,0,1,430.67,404a394.74,394.74,0,0,0,10.91-60.76,271.75,271.75,0,0,0-41.51-19.86A353.59,353.59,0,0,1,391.89,382.61Z"/>
<path class="cls-3" d="M276.53,578l30,29.49c13.92-12.39,75.42-68.91,111.12-162.94a191.93,191.93,0,0,0-37.22-22.25C348.7,512.64,289.3,566.77,276.53,578Z"/>
<path class="cls-4" d="M376.74,176.37A360.51,360.51,0,0,1,391.17,223a356.73,356.73,0,0,1,46.89,14.65,394.82,394.82,0,0,0-11.6-49.2A394.6,394.6,0,0,0,376.74,176.37Z"/>
<path class="cls-4" d="M400.48,313.64q-.14,4.91-.41,9.72a271.75,271.75,0,0,1,41.51,19.86c.89-8.9,1.51-18,1.8-27.3q.27-8.49.17-16.78a312.29,312.29,0,0,0-43.7-17.89C400.53,291.76,400.77,302.55,400.48,313.64Z"/>
<path class="cls-4" d="M380.45,422.34a191.93,191.93,0,0,1,37.22,22.25,399.14,399.14,0,0,0,13-40.61,230.74,230.74,0,0,0-38.78-21.37A353.68,353.68,0,0,1,380.45,422.34Z"/>
<path class="cls-3" d="M316.69,266.76c9.92.33,19.55,1.13,28.87,2.33a301.21,301.21,0,0,0-11.3-54.81c-6.19-.44-12.47-.74-18.86-.86-8.56-.16-16.94,0-25.15.42a256.91,256.91,0,0,1,13.94,52.77C308.31,266.58,312.47,266.62,316.69,266.76Z"/>
<path class="cls-3" d="M347.27,309.64a259,259,0,0,0-31.25-2.7c-3-.08-6-.08-8.94-.06q0,3.31-.13,6.67a255.74,255.74,0,0,1-7,51.8c2.22-.08,4.45-.14,6.71-.15a213.8,213.8,0,0,1,33.59,2.5,301.73,301.73,0,0,0,6.89-53.18C347.19,312.89,347.23,311.26,347.27,309.64Z"/>
<path class="cls-3" d="M317.23,170.5C289.87,113.06,252.61,78,244.51,70.66l-32.38,31.23c5.91,5,34,29.37,58.05,70.3A395.55,395.55,0,0,1,317.23,170.5Z"/>
<path class="cls-3" d="M285.49,408.19c-26,59.5-67.19,94.44-75.79,101.5l29.92,27.68c11.08-9.65,60.92-54.46,88.78-129.5a174.47,174.47,0,0,0-21.76-1.15A177.31,177.31,0,0,0,285.49,408.19Z"/>
<path class="cls-4" d="M315.4,213.42c6.39.12,12.67.42,18.86.86a316.45,316.45,0,0,0-17-43.78,395.55,395.55,0,0,0-47.05,1.69,276.12,276.12,0,0,1,20.07,41.65C298.46,213.42,306.84,213.26,315.4,213.42Z"/>
<path class="cls-4" d="M304.19,266.61a255.63,255.63,0,0,1,2.89,40.27c2.95,0,5.93,0,8.94.06a259,259,0,0,1,31.25,2.7,302.94,302.94,0,0,0-1.71-40.55c-9.32-1.2-18.95-2-28.87-2.33C312.47,266.62,308.31,266.58,304.19,266.61Z"/>
<path class="cls-4" d="M306.64,365.2c-2.26,0-4.49.07-6.71.15a258.72,258.72,0,0,1-14.44,42.84,177.31,177.31,0,0,1,21.15-1.47,174.47,174.47,0,0,1,21.76,1.15,304.62,304.62,0,0,0,11.83-40.17A213.8,213.8,0,0,0,306.64,365.2Z"/>
<path class="cls-3" d="M232.55,221.63A355.89,355.89,0,0,0,192.31,233a175.14,175.14,0,0,1,13.81,50.85,304.31,304.31,0,0,1,40.47-11.22A213.16,213.16,0,0,0,232.55,221.63Z"/>
<path class="cls-3" d="M142.58,441.55l8.78,8.3L143,441.24Z"/>
<path class="cls-3" d="M174.34,139.1l-29.68,28.57a177.88,177.88,0,0,1,25.41,27.53,403,403,0,0,1,41.48-12.88A221.23,221.23,0,0,0,174.34,139.1Z"/>
<path class="cls-3" d="M173.92,467.42a200.39,200.39,0,0,0,14.56-14.32A174.45,174.45,0,0,0,173.92,467.42Z"/>
<path class="cls-3" d="M248.47,314.25A261.07,261.07,0,0,0,205.42,329c-6,40.87-25.42,71.59-41.29,90.66a231.5,231.5,0,0,1,71-41.71A211,211,0,0,0,248.47,314.25Z"/>
<path class="cls-4" d="M211.55,182.32a403,403,0,0,0-41.48,12.88A191.35,191.35,0,0,1,192.31,233a355.89,355.89,0,0,1,40.24-11.38A229,229,0,0,0,211.55,182.32Z"/>
<path class="cls-4" d="M248.76,303.73a212.74,212.74,0,0,0-2.17-31.09,304.31,304.31,0,0,0-40.47,11.22,174.1,174.1,0,0,1,1.13,19.56A174.9,174.9,0,0,1,205.42,329a261.07,261.07,0,0,1,43.05-14.73C248.65,310.79,248.75,307.29,248.76,303.73Z"/>
<path class="cls-4" d="M164.13,419.64A173.18,173.18,0,0,1,143,441.24l8.41,8.61,20.48,19.37c.53-.44,1.23-1.05,2.08-1.8a174.45,174.45,0,0,1,14.56-14.32,232.85,232.85,0,0,0,46.67-75.17A231.5,231.5,0,0,0,164.13,419.64Z"/></svg>